<?xml version="1.0" encoding="UTF-8" standalone="no"?>
<svg
   width="75.528458"
   height="74.837189"
   viewBox="0 0 75.528458 74.837189"
   fill="none"
   version="1.1"
   id="svg4"
   xmlns="http://www.w3.org/2000/svg"
   xmlns:svg="http://www.w3.org/2000/svg">
  <defs
     id="defs4" />
  <g
     id="layer2"
     transform="translate(-4.5276284,-4.9576311)">
    <path
       d="m 75.199193,36.826653 q -0.852087,-3.332961 -2.811887,-6.215522 -1.87459,-2.882561 -4.43085,-5.044481 -2.471051,-2.161921 -5.453354,-3.423042 -2.982302,-1.261119 -6.049814,-1.261119 -3.83439,0 -6.561067,2.16192 -2.641469,2.07184 -2.641469,6.305602 0,3.24288 2.385844,5.494881 2.471051,2.252 6.135023,4.143682 3.663971,1.801599 7.839197,3.69328 4.260432,1.89168 7.924404,4.594081 3.663973,2.612321 6.049815,6.305602 2.471051,3.693282 2.471051,9.188163 0,3.873441 -1.448547,7.026242 -1.448548,3.1528 -4.090015,5.4048 -2.641469,2.161921 -6.39065,3.332961 -3.749181,1.261121 -8.350449,1.261121 -2.130216,0 -4.260432,-0.4504 -2.130216,-0.36032 -4.260434,-0.9008 -2.045007,-0.450401 -4.175224,-0.810721 -2.130216,-0.4504 -4.260433,-0.4504 -0.340835,0 -0.937294,0.18016 -0.511253,0.09008 -1.192922,0.27024 -0.596461,0.18016 -1.192921,0.36032 -0.596461,0.18016 -0.937295,0.36032 -0.68167,-5.044481 -1.448547,-10.179042 -0.766879,-5.134562 -1.9598,-10.359203 h 1.87459 q 0.937296,3.332961 3.067512,6.575842 2.130217,3.242881 4.942103,5.855202 2.897093,2.52224 6.220231,4.053601 3.323138,1.53136 6.561068,1.53136 2.811885,0 5.112519,-0.450401 2.300633,-0.450399 3.919598,-1.441279 1.704173,-1.080961 2.55626,-2.792481 0.937295,-1.801601 0.937295,-4.504001 0,-3.693281 -2.471051,-6.125442 -2.471051,-2.522241 -6.220232,-4.504001 -3.663972,-2.07184 -8.009614,-3.963522 -4.260432,-1.89168 -8.009613,-4.323841 -3.663973,-2.43216 -6.135024,-5.76512 -2.471052,-3.332962 -2.471052,-8.197283 0,-8.467523 4.856895,-12.250883 4.856893,-3.873442 14.741097,-3.873442 2.55626,0 4.942103,0.450401 2.385842,0.36032 4.516058,0.9008 2.130216,0.540481 4.004807,0.99088 1.87459,0.360321 3.493555,0.360321 h 3.067512 q -0.08521,1.53136 -0.170418,2.88256 -0.08521,1.3512 -0.08521,2.792481 0,2.61232 0.170418,5.404801 0.255625,2.792481 0.426043,5.404802 z"
       id="text4-8"
       style="font-weight:bold;font-size:64px;font-family:Cochin;-inkscape-font-specification:'Cochin Bold';letter-spacing:0px;fill:#878787;fill-opacity:1;stroke-width:1.36891"
       aria-label="S" />
    <path
       style="font-size:64px;font-family:Cochin;-inkscape-font-specification:Cochin;letter-spacing:0px;fill:#000000;stroke-width:1.36891"
       d="m 25.744584,4.9576309 q 3.15272,0.1801601 6.135024,0.27024 3.067511,0.090081 6.220231,0.090081 3.578765,0 6.987111,-0.090081 3.408346,-0.090081 6.987109,-0.27024 v 1.0809603 q -2.215424,0.27024 -3.749181,0.7206403 -1.448547,0.4504001 -2.385842,1.3512003 -0.937296,0.9008002 -1.363339,2.3420802 -0.426043,1.441281 -0.426043,3.693281 v 34.230409 q 0,4.323842 -1.874591,7.566723 -1.87459,3.24288 -4.942101,5.404801 -3.067512,2.16192 -6.987111,3.242881 -3.919597,1.08096 -8.009613,1.08096 -2.215425,0 -5.282937,-0.72064 -2.982303,-0.720641 -5.794189,-2.34208 -2.8118855,-1.621441 -4.7716846,-4.323842 -1.9597991,-2.702401 -1.9597991,-6.665921 0,-2.432161 1.3633385,-4.594082 1.3633385,-2.16192 4.3456412,-2.16192 2.045008,0 3.578764,1.53136 1.618964,1.441281 1.618964,3.062721 0,1.26112 -0.340835,2.97264 -0.255625,1.711521 -1.107712,2.702402 0.340835,2.34208 1.27813,3.87344 0.937296,1.441281 2.215425,2.342081 1.363338,0.81072 2.897095,1.17104 1.618965,0.270241 3.237928,0.270241 4.260434,0 6.816693,-1.621441 2.55626,-1.621441 3.83439,-4.053601 1.363339,-2.522241 1.789382,-5.494881 0.426043,-3.062722 0.426043,-5.945282 V 15.767234 q 0,-2.972641 -0.68167,-4.684161 Q 35.202746,9.281472 33.839407,8.2905918 32.561277,7.2096316 30.516269,6.7592315 28.471261,6.3088312 25.744584,6.0385912 Z"
       id="text4"
       aria-label="J" />
  </g>
</svg>
